<svg xmlns="http://www.w3.org/2000/svg" width="473" height="471" viewBox="0 0 473 471">
<g>
<path d="M 242.50 437.50 L 241.89 446.00 L 236.94 446.00 C232.02,446.00 232.00,445.99 232.00,442.70 C232.00,440.89 231.46,438.86 230.80,438.20 C229.05,436.45 181.64,436.50 180.26,438.25 C179.72,438.94 178.98,440.74 178.62,442.25 C178.02,444.74 177.54,445.00 173.51,445.00 L 169.06 445.00 L 169.28 441.25 L 169.50 437.50 L 152.00 436.74 C142.38,436.32 131.09,436.23 126.92,436.54 C119.80,437.07 118.89,436.90 111.67,433.61 C103.61,429.94 102.08,428.67 106.86,429.62 C111.27,430.50 115.23,427.79 119.40,421.02 C119.53,420.82 119.65,420.62 119.77,420.43 C121.88,417.02 123.17,414.93 122.61,413.68 C121.70,411.69 116.02,411.85 101.27,412.28 C100.74,412.30 100.20,412.32 99.65,412.33 L 77.36 412.98 L 74.59 410.09 C72.30,407.70 72.07,407.05 73.30,406.35 C75.96,404.82 87.00,394.09 87.00,393.03 C87.00,392.37 81.68,392.00 72.08,392.00 L 57.17 392.00 L 54.07 388.08 L 50.96 384.16 L 55.48 380.46 C62.01,375.11 61.53,374.00 52.70,374.00 C45.94,374.00 43.00,373.03 43.00,370.80 C43.00,370.36 47.98,370.00 54.07,370.00 C60.51,370.00 66.04,369.52 67.32,368.84 C70.81,367.00 78.00,360.86 78.00,359.72 C78.00,359.02 71.61,358.90 58.11,359.35 C40.05,359.95 38.16,359.86 37.58,358.34 C36.90,356.56 38.47,355.04 41.02,355.02 C41.86,355.01 46.13,352.86 50.52,350.25 L 58.50 345.50 L 45.50 344.86 C34.01,344.30 32.23,344.28 32.00,343.68 C31.96,343.57 31.97,343.44 31.99,343.28 C31.99,343.19 32.00,343.10 32.00,343.00 C32.00,342.37 38.33,342.00 49.00,342.00 C58.66,342.00 66.00,342.40 66.00,342.92 C66.00,343.42 64.31,344.85 62.25,346.10 C56.82,349.37 51.00,354.02 51.00,355.08 C51.00,355.60 57.40,356.00 65.53,356.00 C82.05,356.00 83.51,355.60 92.42,348.63 C100.33,342.45 101.65,342.76 95.22,349.28 C92.35,352.19 90.00,354.89 90.00,355.28 C90.00,355.68 96.78,356.00 105.07,356.00 L 120.15 356.00 L 126.08 350.34 C132.68,344.05 134.93,343.77 130.12,349.85 C128.40,352.01 127.00,354.29 127.00,354.89 C127.00,355.66 131.94,356.00 142.88,356.00 L 158.76 356.00 L 162.97 350.42 C167.74,344.10 169.14,343.85 166.07,349.86 C164.93,352.09 164.00,354.39 164.00,354.96 C164.00,355.64 169.71,356.00 180.38,356.00 L 196.75 356.00 L 198.90 351.00 C201.32,345.38 203.38,344.18 201.93,349.24 C201.84,349.55 201.76,349.85 201.67,350.13 C201.04,352.30 200.64,353.68 201.13,354.54 C202.00,356.04 205.59,355.98 215.45,355.81 C216.18,355.80 216.95,355.79 217.75,355.77 L 234.50 355.50 L 234.82 351.50 C235.26,345.95 236.72,344.92 237.51,349.62 C237.86,351.75 238.33,354.06 238.55,354.75 C238.84,355.68 243.12,356.00 255.47,356.00 C271.15,356.00 272.00,355.90 272.00,354.07 C272.00,353.00 271.55,350.94 270.99,349.48 C269.64,345.93 270.91,344.06 272.61,347.11 C273.33,348.43 273.95,350.22 273.96,351.10 C273.98,351.97 274.82,353.43 275.83,354.35 C277.37,355.74 280.15,356.00 293.33,356.00 C303.51,356.00 309.00,355.64 309.00,354.96 C309.00,354.39 308.10,352.16 307.00,350.00 C304.76,345.62 304.62,345.00 305.86,345.00 C306.33,345.00 308.36,347.48 310.37,350.50 L 314.02 356.00 L 330.01 356.00 C348.10,356.00 348.21,355.94 342.42,349.18 C337.09,342.95 340.69,344.03 346.82,350.50 L 352.04 356.00 L 367.52 356.00 C376.28,356.00 383.00,355.60 383.00,355.08 C383.00,354.57 380.44,351.87 377.30,349.08 C369.96,342.54 372.26,342.52 381.07,349.05 C384.82,351.83 389.37,354.53 391.19,355.05 C395.66,356.34 422.00,356.29 422.00,355.01 C422.00,354.46 418.41,351.65 414.02,348.76 C409.63,345.86 406.04,343.27 406.02,343.00 C406.01,342.73 413.88,342.38 423.50,342.24 C433.13,342.10 441.00,342.38 441.00,342.86 C441.00,344.17 434.62,344.98 424.12,344.99 C414.77,345.00 414.74,345.01 417.12,346.87 C420.73,349.70 431.68,355.00 433.91,355.00 C436.61,355.00 437.18,356.29 435.53,358.65 C434.25,360.47 433.51,360.57 426.32,359.79 C416.27,358.71 395.77,359.18 395.33,360.51 C395.15,361.06 397.81,363.42 401.25,365.76 L 407.51 370.00 L 418.83 370.00 C429.07,370.00 430.11,370.17 429.81,371.75 C429.53,373.22 428.15,373.55 421.24,373.79 C416.71,373.95 413.00,374.48 413.00,374.96 C413.00,375.45 415.24,377.81 417.99,380.21 L 422.98 384.57 L 420.45 388.29 L 417.93 392.00 L 401.96 392.00 C388.91,392.00 386.00,392.26 386.00,393.41 C386.00,395.02 395.37,403.75 398.75,405.29 C401.65,406.62 401.59,407.06 398.04,410.46 C395.09,413.29 395.03,413.30 385.67,412.64 C372.39,411.71 350.00,412.93 350.00,414.59 C350.00,415.29 351.94,418.71 354.31,422.19 L 358.63 428.50 L 370.50 429.50 L 367.00 431.15 C356.11,436.27 353.23,437.10 347.41,436.83 C344.16,436.68 333.00,436.65 322.62,436.78 L 303.74 437.00 L 304.37 440.89 C304.97,444.68 304.90,444.80 301.63,445.41 C297.09,446.26 295.24,445.37 294.50,441.99 C294.15,440.42 293.28,438.65 292.56,438.05 C291.68,437.32 283.34,437.05 266.88,437.23 ZM 473.00 471.00 L 0.00 471.00 L 79.75 470.86 C123.61,470.79 156.28,470.39 152.35,469.98 C130.69,467.69 104.23,459.63 88.13,450.40 C57.94,433.08 36.64,410.87 19.19,378.50 C12.74,366.53 7.06,349.42 3.39,330.83 C2.03,323.96 1.66,313.50 1.29,271.25 L 0.84 220.00 L 13.72 220.00 L 14.43 270.25 C15.10,318.20 15.24,321.06 17.59,332.66 C24.22,365.35 36.69,388.71 59.97,412.07 C77.99,430.15 96.17,441.54 118.78,448.91 C143.17,456.86 148.72,457.21 244.03,456.74 C335.24,456.29 330.39,456.65 354.36,448.62 C387.58,437.49 417.73,413.46 435.97,383.57 C443.98,370.44 451.64,350.78 455.25,334.07 C457.16,325.24 457.35,320.43 457.72,271.62 L 458.13 218.75 L 462.70 219.37 C465.22,219.72 468.34,220.00 469.64,220.00 L 472.00 220.00 L 472.00 265.04 C472.00,289.81 471.53,314.45 470.95,319.79 C467.98,347.32 458.17,374.14 442.54,397.44 C414.99,438.51 368.08,466.07 318.50,470.32 C318.43,470.33 318.40,470.33 318.40,470.34 C318.40,470.52 351.51,470.74 393.75,470.83 L 473.00 471.00 ZM 226.80 324.80 C225.89,325.71 209.59,325.98 159.05,325.90 C122.45,325.84 91.15,325.47 89.50,325.06 C81.46,323.11 75.28,317.19 72.26,308.53 C70.68,304.02 70.50,298.88 70.50,259.00 L 70.50 214.50 L 73.34 214.18 L 76.17 213.85 L 75.90 259.18 C75.66,300.31 75.80,304.87 77.37,308.49 C79.74,313.97 82.50,316.64 87.90,318.71 C92.12,320.33 97.77,320.48 156.66,320.49 C191.95,320.50 221.20,320.13 221.66,319.67 C222.12,319.21 222.50,310.98 222.50,301.38 C222.50,286.96 222.24,283.76 221.00,282.98 C220.10,282.41 197.89,282.02 165.75,282.02 C133.35,282.01 112.00,281.63 112.00,281.07 C112.00,280.56 112.71,279.44 113.57,278.57 C114.96,277.18 121.43,277.00 169.64,277.00 C205.29,277.00 224.80,277.36 226.07,278.04 C227.89,279.01 228.00,280.35 228.00,301.34 C228.00,317.32 227.66,323.94 226.80,324.80 ZM 388.64 323.28 L 384.50 325.50 L 315.30 325.78 L 246.10 326.07 L 245.51 322.78 C245.18,320.98 245.05,310.05 245.21,298.50 L 245.50 277.50 L 358.26 277.50 L 361.24 282.00 L 307.70 282.00 C278.26,282.00 253.45,282.27 252.58,282.61 C251.22,283.13 251.00,285.76 251.00,301.59 C251.00,319.96 251.00,319.96 253.31,320.54 C254.59,320.86 283.95,320.98 318.56,320.81 C380.12,320.51 381.60,320.45 386.00,318.40 C391.30,315.92 393.31,313.84 395.63,308.46 C397.16,304.94 397.33,300.42 397.19,267.50 C397.11,247.15 396.78,228.87 396.45,226.88 C395.89,223.42 395.98,223.27 398.42,223.74 C400.33,224.11 401.22,225.14 401.98,227.86 C402.57,230.00 402.99,246.15 402.99,266.91 C403.00,297.46 402.77,303.06 401.30,307.71 C399.27,314.16 394.32,320.25 388.64,323.28 ZM 63.00 205.30 L 63.00 234.00 L 45.17 234.00 C35.36,234.00 27.03,233.70 26.67,233.33 C26.30,232.97 26.00,226.49 26.00,218.94 C26.00,207.35 26.25,205.12 27.58,204.61 C29.65,203.81 42.34,203.83 53.85,204.65 ZM 62.25 265.34 C61.13,266.02 34.07,266.85 29.75,266.33 L 26.00 265.88 L 26.00 252.06 C26.00,238.57 26.05,238.22 28.25,237.63 C31.24,236.83 52.50,236.83 58.36,237.64 L 63.00 238.27 L 63.00 251.58 C63.00,258.89 62.66,265.09 62.25,265.34 ZM 447.00 205.29 L 447.00 234.00 L 429.06 234.00 C419.19,234.00 410.97,233.66 410.78,233.25 C410.60,232.84 410.46,226.44 410.48,219.04 L 410.50 205.59 L 413.80 204.91 C415.62,204.54 423.83,204.47 432.05,204.76 ZM 438.75 266.01 C434.21,266.01 428.25,266.18 425.50,266.38 C422.75,266.58 418.41,266.56 415.85,266.32 L 411.20 265.90 L 410.49 253.64 C410.10,246.89 409.95,240.50 410.15,239.44 C410.49,237.67 411.58,237.47 422.51,237.19 C429.11,237.02 437.31,237.17 440.75,237.52 L 447.00 238.16 L 447.00 266.00 ZM 446.78 284.23 L 446.50 298.50 L 428.73 298.77 C414.69,298.99 410.85,298.77 410.45,297.72 C410.17,296.99 410.06,290.57 410.22,283.45 L 410.50 270.50 L 428.78 270.23 L 447.06 269.95 ZM 62.50 270.50 L 62.50 298.50 L 44.94 298.77 C35.28,298.92 27.07,298.73 26.69,298.36 C26.31,297.98 26.00,291.43 26.00,283.81 L 26.00 269.95 ZM 445.58 324.25 L 444.86 330.00 L 411.14 330.00 L 410.51 324.75 C410.16,321.86 410.01,315.67 410.19,311.00 L 410.50 302.50 L 446.50 302.50 L 446.40 310.50 C446.35,314.90 445.98,321.09 445.58,324.25 ZM 62.00 301.95 L 62.00 330.00 L 28.16 330.00 L 27.37 323.25 C26.94,319.54 26.56,313.35 26.54,309.50 L 26.50 302.50 ZM 216.00 317.31 C216.00,318.33 97.12,317.95 92.73,316.91 C85.48,315.20 82.23,311.71 85.42,309.06 C86.54,308.14 87.72,308.32 90.88,309.94 C94.82,311.95 96.33,312.00 153.29,312.00 L 211.65 312.00 L 213.83 314.31 C215.02,315.59 216.00,316.94 216.00,317.31 ZM 385.27 315.63 C381.73,317.39 377.73,317.52 319.25,317.79 C283.45,317.96 257.00,317.71 257.00,317.20 C257.00,316.71 257.95,315.45 259.10,314.40 C261.11,312.59 263.99,312.48 320.90,312.00 C377.27,311.53 380.75,311.39 383.47,309.61 C386.34,307.73 386.37,307.74 388.17,309.96 C390.37,312.68 390.09,313.23 385.27,315.63 ZM 381.17 231.35 C380.17,232.26 378.93,232.94 378.42,232.87 C377.91,232.79 375.25,232.38 372.50,231.95 C369.75,231.53 346.24,231.14 320.25,231.09 C283.10,231.02 273.48,231.04 273.06,229.10 C272.92,228.42 273.89,227.51 275.21,226.27 C275.28,226.21 275.35,226.14 275.42,226.08 L 277.83 223.81 L 327.17 224.21 C371.37,224.58 376.84,224.80 379.75,226.33 C383.49,228.31 383.70,229.06 381.17,231.35 ZM 375.96 235.56 C376.70,236.30 376.19,237.34 374.26,239.06 L 371.50 241.50 L 320.50 241.00 C280.21,240.60 269.00,240.22 267.12,239.15 L 264.75 237.80 L 267.12 235.65 L 269.50 233.50 L 322.20 234.00 C357.23,234.33 375.26,234.85 375.96,235.56 ZM 244.50 428.12 C248.53,428.98 278.15,429.14 284.85,428.34 L 290.21 427.70 L 289.58 423.75 C289.23,421.58 288.30,418.26 287.52,416.38 L 286.09 412.96 L 263.79 413.23 L 241.50 413.50 L 241.50 420.49 C241.50,427.45 241.51,427.48 244.50,428.12 ZM 186.50 428.15 C188.15,428.55 198.64,428.78 209.80,428.67 C226.46,428.49 230.27,428.19 231.04,426.98 C231.55,426.16 231.98,422.96 231.98,419.86 C232.00,415.62 231.60,414.06 230.42,413.61 C229.55,413.27 219.40,413.00 207.87,413.00 L 186.90 413.00 L 185.41 416.55 C184.60,418.51 183.83,421.76 183.71,423.77 C183.52,427.08 183.79,427.50 186.50,428.15 ZM 130.01 428.16 C131.93,428.52 141.87,428.74 152.10,428.66 C166.27,428.54 171.09,428.17 172.36,427.12 C174.50,425.34 177.52,415.12 176.28,413.88 C175.76,413.36 166.08,413.08 154.00,413.23 L 132.64 413.50 L 129.35 419.00 C127.53,422.02 126.16,425.17 126.29,426.00 C126.42,426.84 128.05,427.79 130.01,428.16 ZM 210.22 307.25 C209.79,308.89 206.25,309.00 153.13,308.96 C106.62,308.93 95.92,308.67 93.25,307.51 C89.46,305.86 89.19,304.68 92.12,302.63 C93.66,301.55 94.92,301.40 96.69,302.07 C98.08,302.60 122.82,303.00 154.48,303.00 L 157.92 303.00 C202.07,303.00 209.74,303.00 210.47,305.25 C210.62,305.73 210.47,306.30 210.29,306.99 C210.27,307.08 210.24,307.16 210.22,307.25 ZM 306.02 428.18 C313.02,428.68 344.07,428.19 345.72,427.55 C347.51,426.87 347.03,425.37 342.74,418.25 L 339.58 413.00 L 317.79 413.00 C302.66,413.00 296.00,413.33 296.00,414.10 C296.00,416.53 299.17,425.90 300.32,426.85 C300.99,427.41 303.56,428.01 306.02,428.18 ZM 380.05 307.47 C377.51,308.79 369.22,309.00 319.98,309.00 L 262.87 309.00 L 263.18 306.25 L 263.50 303.50 L 321.50 303.00 C376.55,302.53 383.00,302.76 383.00,305.21 C383.00,305.62 381.67,306.64 380.05,307.47 ZM 376.34 299.32 C375.97,299.70 350.32,300.00 319.33,300.00 L 263.00 300.00 L 263.00 294.00 L 372.65 294.00 L 374.83 296.32 C376.04,297.60 376.71,298.95 376.34,299.32 ZM 358.80 255.80 C357.90,256.70 345.97,256.99 311.05,256.96 L 308.78 256.96 C269.74,256.93 262.94,256.92 257.87,253.96 C256.71,253.27 255.64,252.44 254.29,251.40 C248.57,247.04 246.65,241.95 246.19,229.87 L 245.79 219.24 L 248.28 219.71 C250.68,220.17 250.78,220.52 251.18,229.34 C251.69,240.82 253.71,245.38 260.00,249.20 L 264.50 251.94 L 312.25 252.06 C361.01,252.18 362.31,252.29 358.80,255.80 ZM 211.00 298.58 C211.00,299.79 202.62,300.00 154.56,300.00 C115.78,300.00 97.91,299.67 97.46,298.94 C97.10,298.35 97.59,297.00 98.56,295.94 C100.25,294.07 102.17,294.00 155.05,294.00 C157.56,294.00 159.95,294.00 162.24,294.00 C203.25,293.99 209.85,293.99 210.85,296.36 C211.04,296.81 211.03,297.35 211.01,297.99 C211.00,298.18 211.00,298.38 211.00,298.58 ZM 214.69 288.83 L 212.37 291.00 L 158.69 291.00 C129.16,291.00 105.00,290.63 105.00,290.19 C105.00,289.74 105.92,288.39 107.04,287.19 L 109.08 285.00 L 163.04 285.00 C192.72,285.00 217.00,285.37 217.00,285.83 C217.00,286.28 215.96,287.63 214.69,288.83 ZM 367.40 288.75 L 369.31 291.00 L 314.90 290.89 L 260.50 290.79 L 258.25 288.54 C257.01,287.30 256.00,286.00 256.00,285.64 C256.00,284.74 363.27,284.86 364.50,285.77 C365.05,286.17 366.36,287.51 367.40,288.75 ZM 190.25 405.34 C192.24,406.14 229.38,406.05 230.62,405.23 C232.23,404.18 233.27,398.52 232.50,395.00 L 231.84 392.00 L 192.22 392.00 L 190.61 396.02 C188.68,400.83 188.54,404.65 190.25,405.34 ZM 138.38 404.54 C138.84,405.75 142.24,406.00 158.47,406.00 C180.45,406.00 180.83,405.88 182.93,398.31 C183.03,397.97 183.12,397.64 183.21,397.33 C183.72,395.55 184.06,394.37 183.65,393.57 C182.81,391.98 178.94,391.99 167.27,392.00 C166.27,392.00 165.20,392.00 164.07,392.00 L 144.15 392.00 L 140.98 397.54 C139.24,400.58 138.07,403.73 138.38,404.54 ZM 87.67 405.33 C88.80,406.47 124.70,406.09 127.28,404.92 C130.01,403.68 135.00,396.48 135.00,393.80 C135.00,392.13 133.62,392.00 115.64,392.00 L 96.27 392.00 L 91.64 396.96 C87.22,401.68 86.19,403.85 87.67,405.33 ZM 343.37 403.27 L 345.94 406.04 L 365.71 405.77 C388.63,405.46 388.63,405.46 381.44,397.25 L 376.84 392.00 L 356.92 392.00 C345.97,392.00 337.00,392.24 337.00,392.54 C337.00,393.94 341.07,400.79 343.37,403.27 ZM 241.63 404.72 C243.68,406.22 280.57,406.56 282.88,405.10 C284.02,404.38 284.04,403.35 283.04,399.16 C282.37,396.38 281.24,393.62 280.53,393.03 C279.69,392.33 272.57,392.05 259.87,392.23 L 240.50 392.50 L 240.19 397.97 C239.95,402.27 240.26,403.71 241.63,404.72 ZM 366.14 247.09 C363.89,248.91 361.61,249.00 316.14,248.96 C266.95,248.91 263.21,248.63 259.32,244.75 C258.14,243.57 258.23,243.11 259.88,241.61 C261.73,239.94 261.98,239.94 265.16,241.61 C268.19,243.19 273.06,243.38 317.83,243.59 C344.96,243.72 367.46,244.13 367.83,244.50 C368.20,244.87 367.44,246.03 366.14,247.09 ZM 292.02 402.79 L 293.97 406.00 L 313.93 406.00 C327.05,406.00 334.11,405.63 334.54,404.93 C334.91,404.34 333.62,401.30 331.68,398.18 L 328.16 392.50 L 309.40 392.23 C298.85,392.07 290.24,392.36 289.72,392.88 C288.50,394.10 289.59,398.80 292.02,402.79 ZM 85.19 259.40 C85.53,304.33 85.52,304.51 83.39,306.85 C81.69,308.72 81.07,308.93 80.37,307.85 C79.89,307.11 79.37,285.80 79.22,260.50 L 78.93 214.50 L 81.89 214.40 L 84.86 214.29 ZM 91.69 298.83 C90.41,300.02 89.06,301.00 88.69,301.00 C88.31,301.00 88.00,281.42 88.00,257.50 C88.00,233.57 88.34,214.01 88.75,214.01 C89.16,214.02 90.51,214.30 91.75,214.63 L 94.00 215.23 L 94.00 296.65 ZM 393.38 307.25 C392.72,309.50 391.73,309.46 389.59,307.09 C388.01,305.36 387.87,301.86 387.96,267.37 C388.07,230.11 388.10,229.52 390.22,227.27 C391.74,225.64 392.68,225.29 393.44,226.04 C394.52,227.12 394.47,303.59 393.38,307.25 ZM 386.15 386.32 C396.33,386.89 414.95,386.39 415.80,385.52 C416.56,384.74 410.30,378.87 405.50,375.88 C402.88,374.24 400.38,374.01 385.75,374.00 C376.54,374.00 369.00,374.38 369.00,374.84 C369.00,375.31 371.20,377.99 373.90,380.80 L 378.80 385.91 ZM 239.61 384.42 C240.13,385.79 242.86,386.00 259.72,386.00 L 279.22 386.00 L 278.54 382.25 C278.16,380.19 277.20,377.49 276.40,376.25 C274.99,374.06 274.48,374.00 258.18,374.00 C246.46,374.00 241.04,374.36 240.20,375.20 C238.93,376.47 238.59,381.76 239.61,384.42 ZM 158.75 386.22 C172.55,386.58 185.20,385.97 186.59,384.88 C188.05,383.73 190.25,376.21 189.49,374.98 C188.82,373.91 157.24,373.59 154.54,374.62 C153.19,375.14 148.00,383.73 148.00,385.43 C148.00,385.71 152.84,386.06 158.75,386.22 ZM 102.00 385.22 C102.00,386.61 139.42,386.16 141.16,384.75 C143.55,382.80 147.21,376.15 146.51,375.02 C146.12,374.39 139.35,374.00 128.92,374.00 L 111.96 374.00 L 106.98 379.22 C104.24,382.09 102.00,384.79 102.00,385.22 ZM 331.36 383.75 C333.29,385.93 333.91,386.00 352.17,386.00 C362.53,386.00 371.00,385.75 371.00,385.44 C371.00,384.05 364.23,376.65 361.80,375.40 C358.47,373.67 326.00,373.35 326.00,375.04 C326.00,376.33 328.74,380.79 331.36,383.75 ZM 286.25 384.75 C287.54,386.37 324.00,386.57 324.00,384.95 C324.00,383.49 321.08,377.86 319.22,375.75 C317.88,374.21 315.64,374.00 300.90,374.00 C290.58,374.00 283.88,374.39 283.49,375.02 C282.80,376.14 284.68,382.77 286.25,384.75 ZM 57.55 385.08 C57.86,385.59 66.06,386.00 75.77,386.00 L 93.43 386.00 L 98.22 381.29 C100.85,378.70 103.00,376.00 103.00,375.29 C103.00,373.39 73.17,373.47 68.72,375.38 C64.56,377.17 56.82,383.90 57.55,385.08 ZM 194.39 384.56 C194.87,385.81 197.90,386.00 213.73,385.77 L 232.50 385.50 L 232.50 374.50 L 216.23 374.23 C206.55,374.06 199.19,374.36 198.06,374.97 C195.90,376.12 193.53,382.33 194.39,384.56 ZM 100.72 289.75 C99.58,290.99 98.33,292.00 97.93,292.00 C97.53,292.00 97.27,274.44 97.35,252.99 C97.46,220.85 97.72,214.06 98.83,214.49 C99.56,214.77 100.94,215.00 101.90,215.00 C103.52,215.00 103.60,217.35 103.21,251.25 C102.80,286.18 102.71,287.58 100.72,289.75 ZM 385.24 233.08 C385.38,233.31 385.27,249.02 385.00,268.00 L 384.50 302.50 L 379.00 295.31 L 379.00 239.36 L 381.99 236.01 C383.64,234.16 385.10,232.84 385.24,233.08 ZM 238.89 367.25 L 239.95 370.00 L 257.01 370.00 C275.97,370.00 276.13,369.94 274.01,363.54 C273.27,361.30 272.05,359.80 270.67,359.46 C269.48,359.17 261.99,359.06 254.02,359.21 C239.59,359.50 239.54,359.51 238.68,362.00 C238.16,363.52 238.24,365.57 238.89,367.25 ZM 162.25 370.20 C172.36,370.78 191.48,369.78 192.25,368.63 C194.06,365.89 194.95,360.59 193.73,359.81 C191.95,358.68 166.60,358.82 163.57,359.98 C161.06,360.93 157.01,366.31 157.00,368.70 C157.00,369.44 159.00,370.01 162.25,370.20 ZM 198.36 368.50 C198.84,369.75 201.66,370.00 215.27,370.00 C226.64,370.00 231.96,369.64 232.80,368.80 C234.60,367.00 234.33,360.34 232.42,359.61 C231.55,359.27 224.38,359.00 216.49,359.00 C204.79,359.00 201.85,359.29 200.57,360.57 C198.68,362.46 197.57,366.44 198.36,368.50 ZM 111.78 245.95 L 112.07 276.89 L 109.07 280.20 L 106.08 283.50 L 106.08 248.66 C106.08,217.67 106.25,213.88 107.62,214.41 C108.47,214.73 109.69,215.00 110.33,215.00 C111.19,215.00 111.58,223.17 111.78,245.95 ZM 115.58 369.12 C115.87,369.60 123.67,370.00 132.90,370.00 L 133.92 370.00 C145.32,370.00 149.11,370.00 151.31,368.13 C152.47,367.15 153.19,365.64 154.35,363.35 C156.49,359.12 156.07,359.00 138.88,359.00 L 124.91 359.00 L 119.97 363.62 C117.26,366.16 115.28,368.64 115.58,369.12 ZM 79.25 370.20 C86.89,370.77 105.44,369.88 108.25,368.80 C111.49,367.57 117.30,361.30 116.46,359.94 C115.68,358.68 88.83,358.73 85.50,360.00 C82.10,361.29 75.04,367.15 75.02,368.69 C75.01,369.38 76.79,370.02 79.25,370.20 ZM 281.27 368.75 C281.98,369.66 286.81,370.00 299.12,370.00 C311.96,370.00 316.00,369.70 316.00,368.75 C315.99,367.19 312.14,360.76 310.62,359.77 C309.01,358.71 279.23,358.82 278.57,359.89 C277.96,360.88 279.77,366.83 281.27,368.75 ZM 360.28 365.54 L 364.74 370.00 L 381.87 370.00 C391.29,370.00 399.00,369.60 399.00,369.12 C399.00,368.64 396.89,366.51 394.32,364.40 C390.34,361.15 388.64,360.46 383.07,359.83 C373.07,358.72 357.21,358.85 356.47,360.04 C356.12,360.62 357.83,363.09 360.28,365.54 ZM 320.01 365.35 L 322.96 370.00 L 339.42 370.00 C350.39,370.00 356.11,369.63 356.57,368.89 C356.94,368.28 355.47,366.00 353.28,363.81 L 349.31 359.84 L 333.80 359.28 C323.93,358.92 318.07,359.07 317.68,359.71 C317.34,360.26 318.39,362.80 320.01,365.35 ZM 376.00 267.50 C376.00,280.98 375.66,291.98 375.25,291.94 C374.84,291.91 373.49,290.61 372.25,289.04 C370.10,286.31 370.00,285.37 370.00,267.34 C370.00,248.97 370.06,248.43 372.37,245.75 C373.67,244.24 375.02,243.00 375.37,243.00 C375.71,243.00 376.00,254.02 376.00,267.50 ZM 366.95 266.86 C367.01,275.74 366.88,283.00 366.65,283.00 C366.42,283.00 365.02,281.40 363.53,279.45 C360.93,276.04 360.83,275.47 361.16,265.97 C361.47,256.77 361.70,255.85 364.17,253.38 L 366.83 250.71 ZM 219.51 302.00 C219.52,309.70 219.21,316.00 218.83,316.00 C218.45,316.00 217.10,314.55 215.84,312.78 C213.95,310.12 213.55,308.25 213.53,302.03 C213.50,295.58 213.85,294.03 215.94,291.25 C217.28,289.46 218.63,288.00 218.94,288.00 C219.25,288.01 219.50,294.31 219.51,302.00 ZM 260.00 304.23 C260.00,308.09 259.45,309.58 257.03,312.23 L 254.06 315.50 L 254.00 287.73 L 256.07 290.36 C258.72,293.73 260.00,298.25 260.00,304.23 ZM 258.57 238.57 C257.79,239.36 256.87,240.00 256.54,240.00 C255.24,240.00 254.57,236.16 254.54,228.50 C254.50,220.51 254.50,220.50 257.25,220.18 L 260.00 219.87 L 260.00 228.51 C260.00,234.66 259.59,237.55 258.57,238.57 ZM 267.26 230.10 C265.92,231.70 264.41,233.00 263.91,233.00 C263.41,233.00 263.00,230.05 263.00,226.44 L 263.00 219.87 L 266.25 220.19 C269.18,220.47 269.51,220.83 269.60,223.85 C269.67,226.05 268.86,228.20 267.26,230.10 Z" fill="rgb(114,161,180)"/>
<path d="M 432.00 104.42 C432.00,104.74 344.02,105.00 236.50,105.00 C128.98,105.00 41.00,104.69 41.00,104.31 C41.00,103.30 48.37,91.45 53.31,84.51 C55.65,81.22 58.68,77.97 60.03,77.28 C61.97,76.31 99.53,76.04 234.50,76.03 C329.10,76.02 408.23,76.30 410.34,76.65 C413.64,77.20 414.91,78.28 419.49,84.39 C424.45,91.02 432.00,103.10 432.00,104.42 ZM 1.17 220.00 C0.95,159.58 1.50,150.57 4.59,135.00 C9.95,108.02 24.80,78.76 43.60,58.13 C65.21,34.43 87.29,19.68 115.50,10.12 C140.22,1.74 140.17,1.74 229.00,1.26 C311.20,0.82 319.96,1.13 338.91,5.17 C381.89,14.34 420.36,40.58 444.69,77.33 C459.94,100.37 468.49,125.03 470.98,153.19 C471.55,159.65 471.88,188.23 471.96,220.00 L 469.64 220.00 C468.34,220.00 465.22,219.72 462.70,219.37 L 458.13 218.75 L 457.72 271.62 C457.46,305.92 457.29,318.49 456.54,326.00 C457.35,317.12 457.48,299.51 457.75,243.00 C458.03,184.89 457.81,158.37 456.97,150.58 C453.06,114.27 438.32,83.99 412.34,58.89 C390.05,37.37 367.06,25.05 336.50,18.27 L 324.50 15.60 L 242.00 15.25 C171.42,14.95 157.73,15.13 147.29,16.47 C109.12,21.38 75.81,39.79 49.53,70.50 C38.30,83.62 26.00,106.32 21.00,123.16 C14.81,144.01 14.74,145.13 14.72,236.50 L 14.71 289.68 C14.62,284.17 14.53,277.76 14.43,270.25 L 13.72 220.00 ZM 62.80 131.25 L 62.50 136.50 L 46.66 136.50 C37.95,136.50 30.60,136.16 30.34,135.74 C29.47,134.34 36.28,113.25 38.98,109.00 C39.81,107.68 62.01,107.46 226.71,107.17 C329.45,106.99 418.15,107.15 423.83,107.52 L 434.16 108.20 L 436.18 112.85 C438.69,118.63 443.00,132.73 443.00,135.18 C443.00,136.86 441.88,137.00 428.75,136.99 C415.99,136.97 411.91,136.98 410.61,135.08 C410.00,134.19 410.00,132.88 410.00,130.95 L 410.00 126.00 L 63.10 126.00 ZM 252.29 238.75 C251.68,236.23 251.35,233.17 251.18,229.34 C250.78,220.52 250.68,220.17 248.28,219.71 L 245.81 219.24 C245.45,208.05 245.13,187.30 245.08,171.29 C245.00,141.40 245.08,140.03 246.93,139.04 C249.21,137.82 387.35,137.70 395.84,138.90 C398.77,139.32 401.58,140.30 402.07,141.08 C403.27,142.98 403.23,183.09 402.02,185.00 C401.33,186.10 398.31,186.67 390.79,187.14 C377.60,187.97 321.44,187.96 304.50,187.14 C292.02,186.53 291.49,186.41 291.18,184.26 L 290.86 182.02 L 343.68 181.76 L 396.50 181.50 L 396.77 164.00 C397.02,148.43 396.86,146.37 395.33,145.25 C392.66,143.30 253.71,143.44 252.08,145.40 C251.23,146.43 251.00,158.94 251.21,192.65 C251.41,224.17 251.53,234.19 252.29,238.75 ZM 62.78 186.75 L 63.05 201.00 L 26.00 201.00 L 26.00 171.95 L 44.25 172.23 L 62.50 172.50 ZM 62.50 139.50 L 63.05 169.00 L 45.00 169.00 C29.24,169.00 26.86,168.79 26.31,167.37 C25.41,165.01 27.84,141.89 29.17,140.30 C30.04,139.25 33.84,139.01 46.39,139.23 ZM 447.00 164.92 L 447.00 169.00 L 428.97 169.00 C415.09,169.00 410.82,168.70 410.44,167.70 C410.16,166.98 410.07,160.35 410.22,152.95 L 410.50 139.50 L 426.61 139.23 C438.73,139.02 442.97,139.27 443.74,140.23 C444.82,141.58 447.00,158.06 447.00,164.92 ZM 447.00 172.00 L 447.00 201.00 L 412.27 201.00 L 411.56 187.53 C411.16,180.12 411.13,173.60 411.48,173.03 C411.88,172.39 418.65,172.00 429.56,172.00 ZM 390.30 150.14 C388.24,152.20 387.55,152.23 332.36,152.36 C262.69,152.53 262.18,152.52 259.26,149.78 C258.02,148.61 257.00,147.25 257.00,146.76 C257.00,145.67 390.51,146.18 391.61,147.28 C392.04,147.71 391.45,148.99 390.30,150.14 ZM 385.13 155.00 L 384.50 161.50 L 328.30 161.65 L 272.10 161.80 L 268.30 158.44 L 264.50 155.08 ZM 392.00 177.89 C392.00,178.69 377.26,179.00 339.67,179.00 L 287.35 179.00 L 285.10 176.61 C283.86,175.29 283.23,173.97 283.70,173.68 C284.17,173.39 307.48,173.14 335.50,173.11 C386.18,173.07 386.46,173.08 388.72,175.20 C391.86,178.15 392.34,177.10 389.98,172.47 C387.86,168.29 387.36,160.80 388.95,156.64 C389.91,154.10 393.02,150.00 393.97,150.00 C394.26,150.00 394.57,156.27 394.66,163.93 C394.79,175.53 394.58,177.77 393.41,177.33 C392.63,177.03 392.00,177.28 392.00,177.89 ZM 384.81 167.81 L 385.13 170.98 L 336.31 170.80 C309.47,170.70 285.72,170.44 283.55,170.24 C279.90,169.88 274.00,166.76 274.00,165.18 C274.00,164.81 298.86,164.53 329.25,164.57 L 384.50 164.64 ZM 388.56 224.56 C387.54,225.32 386.96,225.75 386.34,225.83 C385.52,225.93 384.62,225.42 382.53,224.23 L 382.50 224.21 C379.80,222.67 374.55,222.47 330.25,222.21 C303.16,222.06 281.00,221.57 281.00,221.14 C281.00,220.70 282.07,219.34 283.38,218.11 L 285.76 215.88 L 333.13 216.22 C383.15,216.58 386.73,216.90 389.40,221.31 C390.28,222.75 390.11,223.41 388.56,224.56 ZM 401.47 226.35 C400.80,224.73 399.93,224.03 398.42,223.74 C395.98,223.27 395.89,223.42 396.45,226.88 C396.70,228.42 396.96,239.74 397.10,254.23 C396.79,238.67 396.32,224.33 395.94,223.00 C395.36,221.00 389.95,217.28 384.72,215.27 C381.11,213.88 373.84,213.59 334.25,213.23 C308.81,213.00 288.00,212.49 288.00,212.10 C288.00,211.70 288.56,210.67 289.25,209.81 C290.33,208.45 295.45,208.16 327.00,207.68 C368.95,207.03 382.63,207.73 388.52,210.80 C395.77,214.59 398.95,218.17 401.05,224.91 C401.20,225.40 401.34,225.87 401.47,226.35 ZM 267.36 229.99 C267.34,230.01 267.32,230.03 267.30,230.05 C268.88,228.16 269.67,226.03 269.60,223.85 C269.51,220.83 269.18,220.47 266.25,220.19 L 263.18 219.89 C263.07,213.53 263.01,205.12 263.04,195.25 L 263.11 157.50 L 266.58 161.26 L 270.05 165.03 L 269.97 196.00 L 269.89 226.97 ZM 260.00 196.09 C260.00,206.21 259.98,213.96 259.92,219.88 L 257.25 220.18 C255.44,220.39 254.82,220.47 254.62,222.79 C254.45,214.73 254.31,204.28 254.25,193.00 L 254.00 148.50 L 257.00 151.77 L 260.00 155.03 ZM 278.04 195.64 C277.94,217.90 277.89,218.34 275.58,221.09 C274.28,222.63 272.95,223.61 272.61,223.28 C271.72,222.39 271.86,166.99 272.75,167.06 C273.16,167.09 274.54,168.43 275.82,170.05 C278.10,172.93 278.14,173.38 278.04,195.64 ZM 284.75 211.68 C283.51,213.50 282.14,214.99 281.70,214.99 C281.26,215.00 280.97,206.23 281.06,195.50 C281.16,184.77 281.34,176.00 281.48,176.00 C281.62,176.00 282.91,177.71 284.36,179.80 C286.87,183.41 287.00,184.24 287.00,195.99 C287.00,207.19 286.78,208.69 284.75,211.68 ZM 160.91 456.30 C176.50,456.55 207.56,456.67 241.50,456.57 C294.64,456.43 316.06,456.48 328.98,455.11 C316.23,456.49 295.32,456.48 244.03,456.74 C201.93,456.94 177.35,456.99 160.91,456.30 ZM 390.03 316.14 C394.60,312.77 396.35,307.89 397.08,297.58 C396.88,304.37 396.46,306.56 395.63,308.46 C394.02,312.20 392.55,314.35 390.03,316.14 ZM 59.97 412.07 C73.55,425.70 88.19,436.06 104.43,443.42 C88.17,436.19 74.02,426.17 59.97,412.07 ZM 403.00 266.75 C403.00,281.14 402.95,290.02 402.74,295.87 C402.95,290.04 403.00,281.21 402.99,266.91 C402.99,250.38 402.72,236.77 402.32,230.83 C402.92,235.98 403.00,244.75 403.00,266.75 ZM 126.44 451.31 C131.66,452.73 137.03,453.89 142.58,454.82 C136.54,453.99 131.69,452.85 126.44,451.31 ZM 382.10 319.63 C376.84,320.50 364.24,320.59 318.56,320.81 C363.28,320.59 376.64,320.44 382.10,319.63 ZM 247.99 242.75 C249.23,246.50 251.21,249.06 254.29,251.40 C251.07,248.95 249.18,246.81 247.99,242.75 ZM 20.97 346.70 C23.85,356.79 27.37,365.87 31.75,374.38 C27.31,365.80 23.78,356.69 20.97,346.70 ZM 2.40 322.91 C2.66,326.38 2.98,328.77 3.39,330.83 C4.51,336.49 5.81,342.01 7.27,347.29 C8.77,352.73 10.42,357.89 12.18,362.68 C14.36,368.57 16.72,373.91 19.19,378.50 C16.71,373.91 14.36,368.58 12.18,362.68 C10.41,357.88 8.76,352.71 7.27,347.29 C5.81,342.04 4.50,336.52 3.36,330.83 C2.96,328.85 2.65,326.58 2.40,322.91 ZM 254.44 244.05 C255.79,246.00 257.78,247.85 260.00,249.20 C257.56,247.72 255.76,246.12 254.44,244.05 ZM 255.31 238.75 C255.25,238.66 255.19,238.23 255.13,237.49 C255.29,238.28 255.48,238.88 255.69,239.30 C255.57,239.14 255.45,238.96 255.31,238.75 ZM 258.57 238.57 C257.86,239.29 257.35,239.71 256.94,239.86 C257.37,239.63 258.01,239.14 258.57,238.57 ZM 263.90 233.00 C263.90,233.00 263.89,233.00 263.89,233.00 C263.88,233.00 263.88,233.00 263.87,232.99 C263.88,233.00 263.89,233.00 263.90,233.00 Z" fill="rgb(224,122,150)"/>
<path d="M 410.00 73.08 C410.00,74.24 65.32,74.33 64.61,73.17 C63.45,71.30 83.48,53.86 93.31,48.19 L 97.11 46.00 L 376.87 46.00 L 385.68 51.92 C394.45,57.80 410.00,71.34 410.00,73.08 ZM 366.68 40.90 L 372.50 43.90 L 237.04 43.95 C125.10,43.99 101.83,43.77 103.04,42.69 C108.24,38.02 134.61,29.75 149.87,28.01 C154.85,27.43 192.17,27.01 238.08,27.01 C313.94,27.00 318.18,27.10 329.08,29.05 C341.94,31.36 357.99,36.42 366.68,40.90 ZM 76.67 159.70 C76.40,161.85 76.12,184.65 75.97,213.87 L 73.34 214.18 L 70.52 214.50 C70.59,157.12 71.09,154.81 75.55,147.85 C77.10,145.44 79.87,143.23 83.70,141.35 L 89.50 138.50 L 157.10 138.50 C212.92,138.50 224.98,138.74 226.35,139.87 C227.79,141.07 228.00,143.98 228.00,162.92 C228.00,178.45 227.66,184.94 226.80,185.80 C225.90,186.70 212.14,187.00 171.02,187.00 C123.24,187.00 116.17,186.81 114.22,185.44 C113.00,184.59 112.00,183.46 112.00,182.94 C112.00,182.36 133.03,182.00 166.53,182.00 C217.53,182.00 221.11,181.89 221.78,180.25 C222.18,179.29 222.50,171.17 222.50,162.21 C222.50,148.83 222.23,145.75 221.00,144.96 C220.07,144.36 194.78,144.09 154.00,144.25 C89.96,144.49 88.42,144.55 85.00,146.55 C80.30,149.32 77.40,153.89 76.67,159.70 ZM 90.31 153.84 C87.57,155.30 86.70,155.30 85.20,153.80 C83.28,151.88 83.78,150.56 87.25,148.47 C90.37,146.58 92.92,146.49 152.90,146.20 C187.22,146.04 215.94,146.15 216.73,146.45 C217.78,146.85 217.29,147.73 214.89,149.75 L 211.62 152.50 L 152.05 152.59 C108.82,152.65 91.88,152.99 90.31,153.84 ZM 152.36 161.92 C122.01,161.84 96.71,162.06 96.14,162.41 C94.78,163.26 88.25,157.42 89.33,156.33 C89.79,155.87 117.09,155.37 150.00,155.21 L 209.84 154.93 L 210.54 157.14 C212.10,162.04 211.76,162.07 152.36,161.92 ZM 210.33 169.59 C209.88,170.76 201.30,170.94 156.34,170.74 C126.94,170.61 102.10,170.21 101.16,169.86 C98.84,169.01 96.54,166.13 97.44,165.23 C97.84,164.83 123.27,164.38 153.96,164.23 L 209.75 163.95 L 210.31 166.07 C210.61,167.24 210.62,168.82 210.33,169.59 ZM 215.40 176.75 L 217.31 179.00 L 108.11 179.00 L 106.57 176.80 C105.38,175.09 105.31,174.41 106.27,173.77 C107.56,172.90 211.70,173.13 212.84,174.00 C213.21,174.27 214.36,175.51 215.40,176.75 ZM 85.19 259.40 L 84.86 214.29 L 81.89 214.40 L 79.12 214.49 C79.04,186.70 79.13,162.86 79.51,160.25 C80.19,155.52 82.00,154.73 84.37,158.12 C85.66,159.96 85.80,169.74 85.40,232.87 C85.33,244.01 85.27,253.44 85.21,261.45 ZM 94.00 266.46 L 94.00 215.23 L 91.75 214.63 C90.51,214.30 89.16,214.02 88.75,214.01 C88.40,214.01 88.10,228.28 88.02,247.34 C88.01,242.39 88.00,237.25 88.00,231.96 C88.00,163.51 88.02,162.94 89.98,163.99 C90.46,164.24 90.88,164.47 91.27,164.76 C94.37,167.13 94.35,173.61 94.14,232.97 L 94.14 232.98 C94.09,247.00 94.05,257.92 94.00,266.46 ZM 103.19 252.88 L 103.21 251.25 C103.60,217.35 103.52,215.00 101.90,215.00 C100.94,215.00 99.56,214.77 98.83,214.49 C97.79,214.09 97.50,220.08 97.37,247.59 C97.38,214.50 97.76,174.91 98.34,174.33 C98.80,173.87 100.29,174.85 101.64,176.50 L 104.10 179.50 L 103.44 233.50 C103.34,240.93 103.26,247.35 103.19,252.88 ZM 111.78 245.95 C111.58,223.17 111.19,215.00 110.33,215.00 C109.69,215.00 108.47,214.73 107.62,214.41 C106.25,213.88 106.08,217.67 106.08,248.66 L 106.08 250.32 L 106.07 234.50 C106.05,203.45 106.41,184.95 107.04,184.00 C107.90,182.72 108.31,182.83 109.94,184.76 C111.74,186.91 111.84,189.28 111.84,232.09 L 111.84 251.87 ZM 219.53 150.19 C219.82,150.49 219.93,156.67 219.78,163.93 L 219.50 177.14 L 216.75 174.26 C214.19,171.59 214.00,170.80 214.00,162.87 C214.00,155.08 214.21,154.15 216.50,152.00 C217.87,150.71 219.23,149.90 219.53,150.19 ZM 77.40 308.49 C78.63,311.39 79.99,313.51 81.81,315.17 C79.99,313.51 78.63,311.39 77.37,308.49 C75.97,305.28 75.71,301.34 75.84,271.91 C75.87,301.35 76.23,305.74 77.40,308.49 ZM 83.09 307.35 C81.62,308.83 81.09,308.94 80.40,307.90 C81.08,308.92 81.71,308.69 83.39,306.85 C83.47,306.76 83.56,306.67 83.63,306.58 C83.47,306.92 83.29,307.15 83.09,307.35 ZM 91.69 298.83 L 91.76 298.76 C90.59,299.99 89.28,301.00 88.83,301.00 C88.82,301.00 88.81,300.99 88.80,300.98 C89.30,300.83 90.52,299.92 91.69,298.83 ZM 111.84 277.15 L 111.84 277.15 L 108.97 280.32 L 106.10 283.50 L 106.10 283.48 L 109.07 280.20 ZM 99.59 290.88 C98.85,291.55 98.21,292.00 97.95,292.00 C97.95,292.00 97.95,292.00 97.95,292.00 C98.23,291.98 98.86,291.53 99.59,290.88 Z" fill="rgb(237,166,74)"/>
<path d="M 150.67 455.98 C114.40,451.59 85.34,437.52 59.97,412.07 C36.64,388.66 24.52,365.92 17.38,332.16 L 14.71 319.50 L 14.72 236.50 C14.74,145.13 14.81,144.01 21.00,123.16 C26.00,106.32 38.30,83.62 49.53,70.50 C75.81,39.79 109.12,21.38 147.29,16.47 C157.73,15.13 171.42,14.95 242.00,15.25 L 324.50 15.60 L 336.50 18.27 C367.06,25.05 390.05,37.37 412.34,58.89 C438.32,83.99 453.06,114.27 456.97,150.58 C457.81,158.37 458.03,184.89 457.75,243.00 C457.38,321.16 457.28,324.89 455.27,334.07 C451.60,350.88 443.95,370.48 435.97,383.57 C417.73,413.46 387.58,437.49 354.36,448.62 C330.24,456.69 335.65,456.31 241.50,456.57 C195.30,456.70 154.43,456.43 150.67,455.98 ZM 242.19 441.75 L 242.50 437.50 L 266.88 437.23 C283.34,437.05 291.68,437.32 292.56,438.05 C293.28,438.65 294.15,440.42 294.50,441.99 C295.24,445.37 297.09,446.26 301.63,445.41 C304.90,444.80 304.97,444.68 304.37,440.89 L 303.74 437.00 L 322.62 436.78 C333.00,436.65 344.16,436.68 347.41,436.83 C353.23,437.10 356.11,436.27 367.00,431.15 L 370.50 429.50 L 364.56 429.00 L 358.63 428.50 L 354.31 422.19 C351.94,418.71 350.00,415.29 350.00,414.59 C350.00,412.93 372.39,411.71 385.67,412.64 C395.03,413.30 395.09,413.29 398.04,410.46 C401.59,407.06 401.65,406.62 398.75,405.29 C395.37,403.75 386.00,395.02 386.00,393.41 C386.00,392.26 388.91,392.00 401.96,392.00 L 417.93 392.00 L 420.45 388.29 L 422.98 384.57 L 417.99 380.21 C415.24,377.81 413.00,375.45 413.00,374.96 C413.00,374.48 416.71,373.95 421.24,373.79 C428.15,373.55 429.53,373.22 429.81,371.75 C430.11,370.17 429.07,370.00 418.83,370.00 L 407.51 370.00 L 401.25 365.76 C397.81,363.42 395.15,361.06 395.33,360.51 C395.77,359.18 416.27,358.71 426.32,359.79 C433.51,360.57 434.25,360.47 435.53,358.65 C437.18,356.29 436.61,355.00 433.91,355.00 C431.68,355.00 420.73,349.70 417.12,346.87 C414.74,345.01 414.77,345.00 424.12,344.99 C434.62,344.98 441.00,344.17 441.00,342.86 C441.00,342.38 433.13,342.10 423.50,342.24 C413.88,342.38 406.01,342.73 406.02,343.00 C406.04,343.27 409.63,345.86 414.02,348.76 C418.41,351.65 422.00,354.46 422.00,355.01 C422.00,356.29 395.66,356.34 391.19,355.05 C389.37,354.53 384.82,351.83 381.07,349.05 C372.26,342.52 369.96,342.54 377.30,349.08 C380.44,351.87 383.00,354.57 383.00,355.08 C383.00,355.60 376.28,356.00 367.52,356.00 L 352.04 356.00 L 346.82 350.50 C340.69,344.03 337.09,342.95 342.42,349.18 C348.21,355.94 348.10,356.00 330.01,356.00 L 314.02 356.00 L 310.37 350.50 C308.36,347.48 306.33,345.00 305.86,345.00 C304.62,345.00 304.76,345.62 307.00,350.00 C308.10,352.16 309.00,354.39 309.00,354.96 C309.00,355.64 303.51,356.00 293.33,356.00 C280.15,356.00 277.37,355.74 275.83,354.35 C274.82,353.43 273.98,351.97 273.96,351.10 C273.95,350.22 273.33,348.43 272.61,347.11 C270.91,344.06 269.64,345.93 270.99,349.48 C271.55,350.94 272.00,353.00 272.00,354.07 C272.00,355.90 271.15,356.00 255.47,356.00 C243.12,356.00 238.84,355.68 238.55,354.75 C238.33,354.06 237.86,351.75 237.51,349.62 C236.72,344.92 235.26,345.95 234.82,351.50 L 234.50 355.50 L 217.75 355.77 C199.14,356.08 199.88,356.39 201.93,349.24 C203.38,344.18 201.32,345.38 198.90,351.00 L 196.75 356.00 L 180.38 356.00 C169.71,356.00 164.00,355.64 164.00,354.96 C164.00,354.39 164.93,352.09 166.07,349.86 C169.14,343.85 167.74,344.10 162.97,350.42 L 158.76 356.00 L 142.88 356.00 C131.94,356.00 127.00,355.66 127.00,354.89 C127.00,354.29 128.40,352.01 130.12,349.85 C134.93,343.77 132.68,344.05 126.08,350.34 L 120.15 356.00 L 105.07 356.00 C96.78,356.00 90.00,355.68 90.00,355.28 C90.00,354.89 92.35,352.19 95.22,349.28 C101.65,342.76 100.33,342.45 92.42,348.63 C83.51,355.60 82.05,356.00 65.53,356.00 C57.40,356.00 51.00,355.60 51.00,355.08 C51.00,354.02 56.82,349.37 62.25,346.10 C64.31,344.85 66.00,343.42 66.00,342.92 C66.00,342.40 58.66,342.00 49.00,342.00 C38.33,342.00 32.00,342.37 32.00,343.00 C32.00,344.31 30.77,344.14 45.50,344.86 L 58.50 345.50 L 50.52 350.25 C46.13,352.86 41.86,355.01 41.02,355.02 C38.47,355.04 36.90,356.56 37.58,358.34 C38.16,359.86 40.05,359.95 58.11,359.35 C71.61,358.90 78.00,359.02 78.00,359.72 C78.00,360.86 70.81,367.00 67.32,368.84 C66.04,369.52 60.51,370.00 54.07,370.00 C47.98,370.00 43.00,370.36 43.00,370.80 C43.00,373.03 45.94,374.00 52.70,374.00 C61.53,374.00 62.01,375.11 55.48,380.46 L 50.96 384.16 L 54.07 388.08 L 57.17 392.00 L 72.08 392.00 C81.68,392.00 87.00,392.37 87.00,393.03 C87.00,394.09 75.96,404.82 73.30,406.35 C72.07,407.05 72.30,407.70 74.59,410.09 L 77.36 412.98 L 99.65 412.33 C125.79,411.57 125.36,411.38 119.40,421.02 C115.23,427.79 111.27,430.50 106.86,429.62 C102.08,428.67 103.61,429.94 111.67,433.61 C118.89,436.90 119.80,437.07 126.92,436.54 C131.09,436.23 142.38,436.32 152.00,436.74 L 169.50 437.50 L 169.28 441.25 L 169.06 445.00 L 173.51 445.00 C177.54,445.00 178.02,444.74 178.62,442.25 C178.98,440.74 179.72,438.94 180.26,438.25 C181.64,436.50 229.05,436.45 230.80,438.20 C231.46,438.86 232.00,440.89 232.00,442.70 C232.00,445.99 232.02,446.00 236.94,446.00 L 241.89 446.00 L 242.19 441.75 ZM 62.00 315.98 L 62.00 301.95 L 44.25 302.23 L 26.50 302.50 L 26.54 309.50 C26.56,313.35 26.94,319.54 27.37,323.25 L 28.16 330.00 L 45.08 330.00 L 62.00 330.00 L 62.00 315.98 ZM 445.58 324.25 C445.98,321.09 446.35,314.90 446.40,310.50 L 446.50 302.50 L 428.50 302.50 L 410.50 302.50 L 410.19 311.00 C410.01,315.67 410.16,321.86 410.51,324.75 L 411.14 330.00 L 428.00 330.00 L 444.86 330.00 L 445.58 324.25 ZM 226.80 324.80 C227.66,323.94 228.00,317.32 228.00,301.34 C228.00,280.35 227.89,279.01 226.07,278.04 C224.80,277.36 205.29,277.00 169.64,277.00 C121.43,277.00 114.96,277.18 113.57,278.57 C112.71,279.44 112.00,280.56 112.00,281.07 C112.00,281.63 133.35,282.01 165.75,282.02 C197.89,282.02 220.10,282.41 221.00,282.98 C222.24,283.76 222.50,286.96 222.50,301.38 C222.50,310.98 222.12,319.21 221.66,319.67 C221.20,320.13 191.95,320.50 156.66,320.49 C97.77,320.48 92.12,320.33 87.90,318.71 C82.48,316.64 79.72,313.95 77.40,308.49 C75.85,304.85 75.72,298.33 75.89,234.50 C75.99,196.00 76.34,162.34 76.67,159.70 C77.40,153.89 80.30,149.32 85.00,146.55 C88.42,144.55 89.96,144.49 154.00,144.25 C194.78,144.09 220.07,144.36 221.00,144.96 C222.23,145.75 222.50,148.83 222.50,162.21 C222.50,171.17 222.18,179.29 221.78,180.25 C221.11,181.89 217.53,182.00 166.53,182.00 C133.03,182.00 112.00,182.36 112.00,182.94 C112.00,183.46 113.00,184.59 114.22,185.44 C116.17,186.81 123.24,187.00 171.02,187.00 C212.14,187.00 225.90,186.70 226.80,185.80 C227.66,184.94 228.00,178.45 228.00,162.92 C228.00,143.98 227.79,141.07 226.35,139.87 C224.98,138.74 212.92,138.50 157.10,138.50 L 89.50 138.50 L 83.70 141.35 C79.87,143.23 77.10,145.44 75.55,147.85 C70.65,155.49 70.53,157.53 70.51,233.00 C70.50,297.71 70.64,303.91 72.26,308.53 C75.28,317.19 81.46,323.11 89.50,325.06 C91.15,325.47 122.45,325.84 159.05,325.90 C209.59,325.98 225.89,325.71 226.80,324.80 ZM 388.64 323.28 C394.32,320.25 399.27,314.16 401.30,307.71 C402.77,303.06 403.00,297.44 403.00,266.75 C403.00,234.29 402.83,230.63 401.05,224.91 C398.95,218.17 395.77,214.59 388.52,210.80 C382.63,207.73 368.95,207.03 327.00,207.68 C295.45,208.16 290.33,208.45 289.25,209.81 C288.56,210.67 288.00,211.70 288.00,212.10 C288.00,212.49 308.81,213.00 334.25,213.23 C373.84,213.59 381.11,213.88 384.72,215.27 C389.95,217.28 395.36,221.00 395.94,223.00 C396.71,225.68 397.82,281.17 397.33,293.00 C396.64,309.85 394.41,314.68 385.49,318.70 C381.81,320.36 376.59,320.52 318.56,320.81 C283.95,320.98 254.59,320.86 253.31,320.54 C251.00,319.96 251.00,319.96 251.00,301.59 C251.00,285.76 251.22,283.13 252.58,282.61 C253.45,282.27 278.26,282.00 307.70,282.00 L 361.24 282.00 L 359.75 279.75 L 358.26 277.50 L 301.88 277.50 L 245.50 277.50 L 245.21 298.50 C245.05,310.05 245.18,320.98 245.51,322.78 L 246.10 326.07 L 315.30 325.78 L 384.50 325.50 L 388.64 323.28 ZM 216.00 317.31 C216.00,316.94 215.02,315.59 213.83,314.31 L 211.65 312.00 L 153.29 312.00 C96.33,312.00 94.82,311.95 90.88,309.94 C87.72,308.32 86.54,308.14 85.42,309.06 C82.23,311.71 85.48,315.20 92.73,316.91 C97.12,317.95 216.00,318.33 216.00,317.31 ZM 385.27 315.63 C390.09,313.23 390.37,312.68 388.17,309.96 C386.37,307.74 386.34,307.73 383.47,309.61 C380.75,311.39 377.27,311.53 320.90,312.00 C263.99,312.48 261.11,312.59 259.10,314.40 C257.95,315.45 257.00,316.71 257.00,317.20 C257.00,317.71 283.45,317.96 319.25,317.79 C377.73,317.52 381.73,317.39 385.27,315.63 ZM 219.51 302.00 C219.50,294.31 219.25,288.01 218.94,288.00 C218.63,288.00 217.28,289.46 215.94,291.25 C213.85,294.03 213.50,295.58 213.53,302.03 C213.55,308.25 213.95,310.12 215.84,312.78 C217.10,314.55 218.45,316.00 218.83,316.00 C219.21,316.00 219.52,309.70 219.51,302.00 ZM 260.00 304.23 C260.00,298.25 258.72,293.73 256.07,290.36 L 254.00 287.73 L 254.03 301.62 L 254.06 315.50 L 257.03 312.23 C259.45,309.58 260.00,308.09 260.00,304.23 ZM 85.40 232.87 C85.80,169.74 85.66,159.96 84.37,158.12 C82.00,154.73 80.19,155.52 79.51,160.25 C78.57,166.79 79.38,306.32 80.37,307.85 C81.08,308.95 81.59,308.85 83.09,307.35 C84.85,305.59 84.97,301.88 85.40,232.87 ZM 210.22 307.25 C211.35,302.91 212.52,303.00 154.48,303.00 C122.82,303.00 98.08,302.60 96.69,302.07 C94.92,301.40 93.66,301.55 92.12,302.63 C89.19,304.68 89.46,305.86 93.25,307.51 C95.92,308.67 106.62,308.93 153.13,308.96 C206.25,309.00 209.79,308.89 210.22,307.25 ZM 380.05 307.47 C381.67,306.64 383.00,305.62 383.00,305.21 C383.00,302.76 376.55,302.53 321.50,303.00 L 263.50 303.50 L 263.18 306.25 L 262.87 309.00 L 319.98 309.00 C369.22,309.00 377.51,308.79 380.05,307.47 ZM 393.38 307.25 C394.47,303.59 394.52,227.12 393.44,226.04 C392.68,225.29 391.74,225.64 390.22,227.27 C388.10,229.52 388.07,230.11 387.96,267.37 C387.87,301.86 388.01,305.36 389.59,307.09 C391.73,309.46 392.72,309.50 393.38,307.25 ZM 385.24 233.08 C385.10,232.84 383.64,234.16 381.99,236.01 L 379.00 239.36 L 379.00 267.34 L 379.00 295.31 L 381.75 298.91 L 384.50 302.50 L 385.00 268.00 C385.27,249.02 385.38,233.31 385.24,233.08 ZM 91.78 298.73 C93.91,296.47 93.92,296.26 94.14,232.98 C94.38,166.34 94.38,166.34 89.98,163.99 C88.02,162.94 88.00,163.51 88.00,231.96 C88.00,269.93 88.37,301.00 88.83,301.00 C89.28,301.00 90.61,299.98 91.78,298.73 ZM 211.00 298.58 C211.00,293.79 213.62,294.00 155.05,294.00 C102.17,294.00 100.25,294.07 98.56,295.94 C97.59,297.00 97.10,298.35 97.46,298.94 C97.91,299.67 115.78,300.00 154.56,300.00 C202.62,300.00 211.00,299.79 211.00,298.58 ZM 376.34 299.32 C376.71,298.95 376.04,297.60 374.83,296.32 L 372.65 294.00 L 317.83 294.00 L 263.00 294.00 L 263.00 297.00 L 263.00 300.00 L 319.33 300.00 C350.32,300.00 375.97,299.70 376.34,299.32 ZM 62.50 284.50 L 62.50 270.50 L 44.25 270.23 L 26.00 269.95 L 26.00 283.81 C26.00,291.43 26.31,297.98 26.69,298.36 C27.07,298.73 35.28,298.92 44.94,298.77 L 62.50 298.50 L 62.50 284.50 ZM 446.78 284.23 L 447.06 269.95 L 428.78 270.23 L 410.50 270.50 L 410.22 283.45 C410.06,290.57 410.17,296.99 410.45,297.72 C410.85,298.77 414.69,298.99 428.73,298.77 L 446.50 298.50 L 446.78 284.23 ZM 100.71 289.75 C102.72,287.56 102.79,286.14 103.44,233.50 L 104.10 179.50 L 101.64 176.50 C100.29,174.85 98.80,173.87 98.34,174.33 C97.33,175.33 96.95,292.00 97.95,292.00 C98.34,292.00 99.58,290.99 100.71,289.75 ZM 376.00 267.50 C376.00,254.02 375.71,243.00 375.37,243.00 C375.02,243.00 373.67,244.24 372.37,245.75 C370.06,248.43 370.00,248.97 370.00,267.34 C370.00,285.37 370.10,286.31 372.25,289.04 C373.49,290.61 374.84,291.91 375.25,291.94 C375.66,291.98 376.00,280.98 376.00,267.50 ZM 214.69 288.83 C215.96,287.63 217.00,286.28 217.00,285.83 C217.00,285.37 192.72,285.00 163.04,285.00 L 109.08 285.00 L 107.04 287.19 C105.92,288.39 105.00,289.74 105.00,290.19 C105.00,290.63 129.16,291.00 158.69,291.00 L 212.37 291.00 L 214.69 288.83 ZM 367.40 288.75 C366.36,287.51 365.05,286.17 364.50,285.77 C363.27,284.86 256.00,284.74 256.00,285.64 C256.00,286.00 257.01,287.30 258.25,288.54 L 260.50 290.79 L 314.90 290.89 L 369.31 291.00 L 367.40 288.75 ZM 111.84 232.09 C111.84,189.28 111.74,186.91 109.94,184.76 C108.31,182.83 107.90,182.72 107.04,184.00 C106.41,184.95 106.05,203.45 106.07,234.50 L 106.10 283.50 L 108.97 280.32 L 111.84 277.15 L 111.84 232.09 ZM 366.95 266.86 L 366.83 250.71 L 364.17 253.38 C361.70,255.85 361.47,256.77 361.16,265.97 C360.83,275.47 360.93,276.04 363.53,279.45 C365.02,281.40 366.42,283.00 366.65,283.00 C366.88,283.00 367.01,275.74 366.95,266.86 ZM 62.25 265.34 C62.66,265.09 63.00,258.89 63.00,251.58 L 63.00 238.27 L 58.36 237.64 C52.50,236.83 31.24,236.83 28.25,237.63 C26.05,238.22 26.00,238.57 26.00,252.06 L 26.00 265.88 L 29.75 266.33 C34.07,266.85 61.13,266.02 62.25,265.34 ZM 438.75 266.01 L 447.00 266.00 L 447.00 252.08 L 447.00 238.16 L 440.75 237.52 C437.31,237.17 429.11,237.02 422.51,237.19 C411.58,237.47 410.49,237.67 410.15,239.44 C409.95,240.50 410.10,246.89 410.49,253.64 L 411.20 265.90 L 415.85 266.32 C418.41,266.56 422.75,266.58 425.50,266.38 C428.25,266.18 434.21,266.01 438.75,266.01 ZM 358.80 255.80 C362.31,252.29 361.01,252.18 312.25,252.06 L 264.50 251.94 L 260.00 249.20 C257.19,247.49 254.75,244.97 253.50,242.48 C251.60,238.70 251.49,236.19 251.21,192.65 C251.00,158.94 251.23,146.43 252.08,145.40 C253.71,143.44 392.66,143.30 395.33,145.25 C396.86,146.37 397.02,148.43 396.77,164.00 L 396.50 181.50 L 343.68 181.76 L 290.86 182.02 L 291.18 184.26 C291.49,186.41 292.02,186.53 304.50,187.14 C321.44,187.96 377.60,187.97 390.79,187.14 C398.31,186.67 401.33,186.10 402.02,185.00 C403.23,183.09 403.27,142.98 402.07,141.08 C401.58,140.30 398.77,139.32 395.84,138.90 C387.35,137.70 249.21,137.82 246.93,139.04 C245.08,140.03 245.00,141.40 245.08,171.29 C245.13,188.45 245.49,211.05 245.89,221.50 C246.69,242.71 247.73,246.40 254.29,251.40 C261.63,257.01 260.74,256.92 311.05,256.96 C345.97,256.99 357.90,256.70 358.80,255.80 ZM 366.14 247.09 C367.44,246.03 368.20,244.87 367.83,244.50 C367.46,244.13 344.96,243.72 317.83,243.59 C273.06,243.38 268.19,243.19 265.16,241.61 C261.98,239.94 261.73,239.94 259.88,241.61 C258.23,243.11 258.14,243.57 259.32,244.75 C263.21,248.63 266.95,248.91 316.14,248.96 C361.61,249.00 363.89,248.91 366.14,247.09 ZM 375.96 235.56 C375.26,234.85 357.23,234.33 322.20,234.00 L 269.50 233.50 L 267.12 235.65 L 264.75 237.80 L 267.12 239.15 C269.00,240.22 280.21,240.60 320.50,241.00 L 371.50 241.50 L 374.26 239.06 C376.19,237.34 376.70,236.30 375.96,235.56 ZM 258.57 238.57 C259.76,237.38 260.00,230.34 260.00,196.09 L 260.00 155.03 L 257.00 151.77 L 254.00 148.50 L 254.25 193.00 C254.39,217.48 254.86,238.06 255.31,238.75 C256.34,240.35 256.82,240.32 258.57,238.57 ZM 63.00 219.65 L 63.00 205.30 L 53.85 204.65 C42.34,203.83 29.65,203.81 27.58,204.61 C26.25,205.12 26.00,207.35 26.00,218.94 C26.00,226.49 26.30,232.97 26.67,233.33 C27.03,233.70 35.36,234.00 45.17,234.00 L 63.00 234.00 L 63.00 219.65 ZM 447.00 219.65 L 447.00 205.29 L 432.05 204.76 C423.83,204.47 415.62,204.54 413.80,204.91 L 410.50 205.59 L 410.48 219.04 C410.46,226.44 410.60,232.84 410.78,233.25 C410.97,233.66 419.19,234.00 429.06,234.00 L 447.00 234.00 L 447.00 219.65 ZM 267.36 229.99 L 269.89 226.97 L 269.97 196.00 L 270.05 165.03 L 266.58 161.26 L 263.11 157.50 L 263.04 195.25 C262.99,217.99 263.33,233.00 263.89,233.00 C264.40,233.00 265.96,231.64 267.36,229.99 ZM 381.17 231.35 C383.70,229.06 383.49,228.31 379.75,226.33 C376.84,224.80 371.37,224.58 327.17,224.21 L 277.83 223.81 L 275.42 226.08 C270.11,231.06 269.51,230.99 320.25,231.09 C346.24,231.14 369.75,231.53 372.50,231.95 C375.25,232.38 377.91,232.79 378.42,232.87 C378.93,232.94 380.17,232.26 381.17,231.35 ZM 388.56 224.56 C390.11,223.41 390.28,222.75 389.40,221.31 C386.73,216.90 383.15,216.58 333.13,216.22 L 285.76 215.88 L 283.38 218.11 C282.07,219.34 281.00,220.70 281.00,221.14 C281.00,221.57 303.16,222.06 330.25,222.21 C374.55,222.47 379.80,222.67 382.50,224.21 C386.20,226.32 386.19,226.32 388.56,224.56 ZM 278.04 195.64 C278.14,173.38 278.10,172.93 275.82,170.05 C274.54,168.43 273.16,167.09 272.75,167.06 C271.86,166.99 271.72,222.39 272.61,223.28 C272.95,223.61 274.28,222.63 275.58,221.09 C277.89,218.34 277.94,217.90 278.04,195.64 ZM 284.75 211.68 C286.78,208.69 287.00,207.19 287.00,195.99 C287.00,184.24 286.87,183.41 284.36,179.80 C282.91,177.71 281.62,176.00 281.48,176.00 C281.34,176.00 281.16,184.77 281.06,195.50 C280.97,206.23 281.26,215.00 281.70,214.99 C282.14,214.99 283.51,213.50 284.75,211.68 ZM 62.78 186.75 L 62.50 172.50 L 44.25 172.23 L 26.00 171.95 L 26.00 186.48 L 26.00 201.00 L 44.53 201.00 L 63.05 201.00 L 62.78 186.75 ZM 447.00 186.50 L 447.00 172.00 L 429.56 172.00 C418.65,172.00 411.88,172.39 411.48,173.03 C411.13,173.60 411.16,180.12 411.56,187.53 L 412.27 201.00 L 429.63 201.00 L 447.00 201.00 L 447.00 186.50 ZM 215.40 176.75 C214.36,175.51 213.21,174.27 212.84,174.00 C211.70,173.13 107.56,172.90 106.27,173.77 C105.31,174.41 105.38,175.09 106.57,176.80 L 108.11 179.00 L 162.71 179.00 L 217.31 179.00 L 215.40 176.75 ZM 392.00 177.89 C392.00,177.28 392.63,177.03 393.41,177.33 C394.58,177.77 394.79,175.53 394.66,163.93 C394.57,156.27 394.26,150.00 393.97,150.00 C393.02,150.00 389.91,154.10 388.95,156.64 C387.36,160.80 387.86,168.29 389.98,172.47 C392.34,177.10 391.86,178.15 388.72,175.20 C386.46,173.08 386.18,173.07 335.50,173.11 C307.48,173.14 284.17,173.39 283.70,173.68 C283.23,173.97 283.86,175.29 285.10,176.61 L 287.35 179.00 L 339.67 179.00 C377.26,179.00 392.00,178.69 392.00,177.89 ZM 219.53 150.19 C219.23,149.90 217.87,150.71 216.50,152.00 C214.21,154.15 214.00,155.08 214.00,162.87 C214.00,170.80 214.19,171.59 216.75,174.26 L 219.50 177.14 L 219.78 163.93 C219.93,156.67 219.82,150.49 219.53,150.19 ZM 210.33 169.59 C210.62,168.82 210.61,167.24 210.31,166.07 L 209.75 163.95 L 153.96 164.23 C123.27,164.38 97.84,164.83 97.44,165.23 C96.54,166.13 98.84,169.01 101.16,169.86 C102.10,170.21 126.94,170.61 156.34,170.74 C201.30,170.94 209.88,170.76 210.33,169.59 ZM 384.81 167.81 L 384.50 164.64 L 329.25 164.57 C298.86,164.53 274.00,164.81 274.00,165.18 C274.00,166.76 279.90,169.88 283.55,170.24 C285.72,170.44 309.47,170.70 336.31,170.80 L 385.13 170.98 L 384.81 167.81 ZM 62.78 154.25 L 62.50 139.50 L 46.39 139.23 C33.84,139.01 30.04,139.25 29.17,140.30 C27.84,141.89 25.41,165.01 26.31,167.37 C26.86,168.79 29.24,169.00 45.00,169.00 L 63.05 169.00 L 62.78 154.25 ZM 447.00 164.92 C447.00,158.06 444.82,141.58 443.74,140.23 C442.97,139.27 438.73,139.02 426.61,139.23 L 410.50 139.50 L 410.22 152.95 C410.07,160.35 410.16,166.98 410.44,167.70 C410.82,168.70 415.09,169.00 428.97,169.00 L 447.00 169.00 L 447.00 164.92 ZM 152.36 161.92 C211.76,162.07 212.10,162.04 210.54,157.14 L 209.84 154.93 L 150.00 155.21 C117.09,155.37 89.79,155.87 89.33,156.33 C88.25,157.42 94.78,163.26 96.14,162.41 C96.71,162.06 122.01,161.84 152.36,161.92 ZM 384.81 158.25 L 385.13 155.00 L 324.81 155.04 L 264.50 155.08 L 268.30 158.44 L 272.10 161.80 L 328.30 161.65 L 384.50 161.50 L 384.81 158.25 ZM 90.31 153.84 C91.88,152.99 108.82,152.65 152.05,152.59 L 211.62 152.50 L 214.89 149.75 C217.29,147.73 217.78,146.85 216.73,146.45 C215.94,146.15 187.22,146.04 152.90,146.20 C92.92,146.49 90.37,146.58 87.25,148.47 C83.78,150.56 83.28,151.88 85.20,153.80 C86.70,155.30 87.57,155.30 90.31,153.84 ZM 390.30 150.14 C391.45,148.99 392.04,147.71 391.61,147.28 C390.51,146.18 257.00,145.67 257.00,146.76 C257.00,147.25 258.02,148.61 259.26,149.78 C262.18,152.52 262.69,152.53 332.36,152.36 C387.55,152.23 388.24,152.20 390.30,150.14 ZM 62.80 131.25 L 63.10 126.00 L 236.55 126.00 L 410.00 126.00 L 410.00 130.88 C410.00,136.99 409.93,136.97 428.75,136.99 C441.88,137.00 443.00,136.86 443.00,135.18 C443.00,132.73 438.69,118.63 436.18,112.85 L 434.16 108.20 L 423.83 107.52 C418.15,107.15 329.45,106.99 226.71,107.17 C62.01,107.46 39.81,107.68 38.98,109.00 C36.28,113.25 29.47,134.34 30.34,135.74 C30.60,136.16 37.95,136.50 46.66,136.50 L 62.50 136.50 L 62.80 131.25 ZM 432.00 104.42 C432.00,103.10 424.45,91.02 419.49,84.39 C414.91,78.28 413.64,77.20 410.34,76.65 C408.23,76.30 329.10,76.02 234.50,76.03 C99.53,76.04 61.97,76.31 60.03,77.28 C58.68,77.97 55.65,81.22 53.31,84.51 C48.37,91.45 41.00,103.30 41.00,104.31 C41.00,104.69 128.98,105.00 236.50,105.00 C344.02,105.00 432.00,104.74 432.00,104.42 ZM 410.00 73.08 C410.00,71.34 394.45,57.80 385.68,51.92 L 376.87 46.00 L 236.99 46.00 L 97.11 46.00 L 93.31 48.19 C83.48,53.86 63.45,71.30 64.61,73.17 C65.32,74.33 410.00,74.24 410.00,73.08 ZM 366.68 40.90 C357.99,36.42 341.94,31.36 329.08,29.05 C318.18,27.10 313.94,27.00 238.08,27.01 C192.17,27.01 154.85,27.43 149.87,28.01 C134.61,29.75 108.24,38.02 103.04,42.69 C101.83,43.77 125.10,43.99 237.04,43.95 L 372.50 43.90 L 366.68 40.90 ZM 130.01 428.16 C128.05,427.79 126.42,426.84 126.29,426.00 C126.16,425.17 127.53,422.02 129.35,419.00 L 132.64 413.50 L 154.00 413.23 C166.08,413.08 175.76,413.36 176.28,413.88 C177.52,415.12 174.50,425.34 172.36,427.12 C171.09,428.17 166.27,428.54 152.10,428.66 C141.87,428.74 131.93,428.52 130.01,428.16 ZM 186.50 428.15 C183.79,427.50 183.52,427.08 183.71,423.77 C183.83,421.76 184.60,418.51 185.41,416.55 L 186.90 413.00 L 207.87 413.00 C219.40,413.00 229.55,413.27 230.42,413.61 C231.60,414.06 232.00,415.62 231.98,419.86 C231.98,422.96 231.55,426.16 231.04,426.98 C230.27,428.19 226.46,428.49 209.80,428.67 C198.64,428.78 188.15,428.55 186.50,428.15 ZM 244.50 428.12 C241.51,427.48 241.50,427.45 241.50,420.49 L 241.50 413.50 L 263.79 413.23 L 286.09 412.96 L 287.52 416.38 C288.30,418.26 289.23,421.58 289.58,423.75 L 290.21 427.70 L 284.85 428.34 C278.15,429.14 248.53,428.98 244.50,428.12 ZM 306.02 428.18 C303.56,428.01 300.99,427.41 300.32,426.85 C299.17,425.90 296.00,416.53 296.00,414.10 C296.00,413.33 302.66,413.00 317.79,413.00 L 339.58 413.00 L 342.74 418.25 C347.03,425.37 347.51,426.87 345.72,427.55 C344.07,428.19 313.02,428.68 306.02,428.18 ZM 87.67 405.33 C86.19,403.85 87.22,401.68 91.64,396.96 L 96.27 392.00 L 115.64 392.00 C133.62,392.00 135.00,392.13 135.00,393.80 C135.00,396.48 130.01,403.68 127.28,404.92 C124.70,406.09 88.80,406.47 87.67,405.33 ZM 138.38 404.54 C138.07,403.73 139.24,400.58 140.98,397.54 L 144.15 392.00 L 164.07 392.00 C185.87,392.00 184.78,391.64 182.93,398.31 C180.83,405.88 180.45,406.00 158.47,406.00 C142.24,406.00 138.84,405.75 138.38,404.54 ZM 190.25 405.34 C188.54,404.65 188.68,400.83 190.61,396.02 L 192.22 392.00 L 212.03 392.00 L 231.84 392.00 L 232.50 395.00 C233.27,398.52 232.23,404.18 230.62,405.23 C229.38,406.05 192.24,406.14 190.25,405.34 ZM 241.63 404.72 C240.26,403.71 239.95,402.27 240.19,397.97 L 240.50 392.50 L 259.87 392.23 C272.57,392.05 279.69,392.33 280.53,393.03 C281.24,393.62 282.37,396.38 283.04,399.16 C284.04,403.35 284.02,404.38 282.88,405.10 C280.57,406.56 243.68,406.22 241.63,404.72 ZM 292.02 402.79 C289.59,398.80 288.50,394.10 289.72,392.88 C290.24,392.36 298.85,392.07 309.40,392.23 L 328.16 392.50 L 331.68 398.18 C333.62,401.30 334.91,404.34 334.54,404.93 C334.11,405.63 327.05,406.00 313.93,406.00 L 293.97 406.00 L 292.02 402.79 ZM 343.37 403.27 C341.07,400.79 337.00,393.94 337.00,392.54 C337.00,392.24 345.97,392.00 356.92,392.00 L 376.84 392.00 L 381.44 397.25 C388.63,405.46 388.63,405.46 365.71,405.77 L 345.94 406.04 L 343.37 403.27 ZM 158.75 386.22 C152.84,386.06 148.00,385.71 148.00,385.43 C148.00,383.73 153.19,375.14 154.54,374.62 C157.24,373.59 188.82,373.91 189.49,374.98 C190.25,376.21 188.05,383.73 186.59,384.88 C185.20,385.97 172.55,386.58 158.75,386.22 ZM 386.15 386.32 L 378.80 385.91 L 373.90 380.80 C371.20,377.99 369.00,375.31 369.00,374.84 C369.00,374.38 376.54,374.00 385.75,374.00 C400.38,374.01 402.88,374.24 405.50,375.88 C410.30,378.87 416.56,384.74 415.80,385.52 C414.95,386.39 396.33,386.89 386.15,386.32 ZM 57.55 385.08 C56.82,383.90 64.56,377.17 68.72,375.38 C73.17,373.47 103.00,373.39 103.00,375.29 C103.00,376.00 100.85,378.70 98.22,381.29 L 93.43 386.00 L 75.77 386.00 C66.06,386.00 57.86,385.59 57.55,385.08 ZM 102.00 385.22 C102.00,384.79 104.24,382.09 106.98,379.22 L 111.96 374.00 L 128.92 374.00 C139.35,374.00 146.12,374.39 146.51,375.02 C147.21,376.15 143.55,382.80 141.16,384.75 C139.42,386.16 102.00,386.61 102.00,385.22 ZM 194.39 384.56 C193.53,382.33 195.90,376.12 198.06,374.97 C199.19,374.36 206.55,374.06 216.23,374.23 L 232.50 374.50 L 232.50 380.00 L 232.50 385.50 L 213.73 385.77 C197.90,386.00 194.87,385.81 194.39,384.56 ZM 239.61 384.42 C238.59,381.76 238.93,376.47 240.20,375.20 C241.04,374.36 246.46,374.00 258.18,374.00 C274.48,374.00 274.99,374.06 276.40,376.25 C277.20,377.49 278.16,380.19 278.54,382.25 L 279.22 386.00 L 259.72 386.00 C242.86,386.00 240.13,385.79 239.61,384.42 ZM 286.25 384.75 C284.68,382.77 282.80,376.14 283.49,375.02 C283.88,374.39 290.58,374.00 300.90,374.00 C315.64,374.00 317.88,374.21 319.22,375.75 C321.08,377.86 324.00,383.49 324.00,384.95 C324.00,386.57 287.54,386.37 286.25,384.75 ZM 331.36 383.75 C328.74,380.79 326.00,376.33 326.00,375.04 C326.00,373.35 358.47,373.67 361.80,375.40 C364.23,376.65 371.00,384.05 371.00,385.44 C371.00,385.75 362.53,386.00 352.17,386.00 C333.91,386.00 333.29,385.93 331.36,383.75 ZM 79.25 370.20 C76.79,370.02 75.01,369.38 75.02,368.69 C75.04,367.15 82.10,361.29 85.50,360.00 C88.83,358.73 115.68,358.68 116.46,359.94 C117.30,361.30 111.49,367.57 108.25,368.80 C105.44,369.88 86.89,370.77 79.25,370.20 ZM 162.25 370.20 C159.00,370.01 157.00,369.44 157.00,368.70 C157.01,366.31 161.06,360.93 163.57,359.98 C166.60,358.82 191.95,358.68 193.73,359.81 C194.95,360.59 194.06,365.89 192.25,368.63 C191.48,369.78 172.36,370.78 162.25,370.20 ZM 115.58 369.12 C115.28,368.64 117.26,366.16 119.97,363.62 L 124.91 359.00 L 138.88 359.00 C156.07,359.00 156.49,359.12 154.35,363.35 C150.92,370.13 151.34,370.00 132.90,370.00 C123.67,370.00 115.87,369.60 115.58,369.12 ZM 198.36 368.50 C197.57,366.44 198.68,362.46 200.57,360.57 C201.85,359.29 204.79,359.00 216.49,359.00 C224.38,359.00 231.55,359.27 232.42,359.61 C234.33,360.34 234.60,367.00 232.80,368.80 C231.96,369.64 226.64,370.00 215.27,370.00 C201.66,370.00 198.84,369.75 198.36,368.50 ZM 238.89 367.25 C238.24,365.57 238.16,363.52 238.68,362.00 C239.54,359.51 239.59,359.50 254.02,359.21 C261.99,359.06 269.48,359.17 270.67,359.46 C272.05,359.80 273.27,361.30 274.01,363.54 C276.13,369.94 275.97,370.00 257.01,370.00 L 239.95 370.00 L 238.89 367.25 ZM 281.27 368.75 C279.77,366.83 277.96,360.88 278.57,359.89 C279.23,358.82 309.01,358.71 310.62,359.77 C312.14,360.76 315.99,367.19 316.00,368.75 C316.00,369.70 311.96,370.00 299.12,370.00 C286.81,370.00 281.98,369.66 281.27,368.75 ZM 320.01 365.35 C318.39,362.80 317.34,360.26 317.68,359.71 C318.07,359.07 323.93,358.92 333.80,359.28 L 349.31 359.84 L 353.28 363.81 C355.47,366.00 356.94,368.28 356.57,368.89 C356.11,369.63 350.39,370.00 339.42,370.00 L 322.96 370.00 L 320.01 365.35 ZM 360.28 365.54 C357.83,363.09 356.12,360.62 356.47,360.04 C357.21,358.85 373.07,358.72 383.07,359.83 C388.64,360.46 390.34,361.15 394.32,364.40 C396.89,366.51 399.00,368.64 399.00,369.12 C399.00,369.60 391.29,370.00 381.87,370.00 L 364.74 370.00 L 360.28 365.54 Z" fill="rgb(251,251,250)"/>
</g>
</svg>